<svg width="512" height="512" viewBox="0 0 512 512" xmlns="http://www.w3.org/2000/svg">
  <defs>
    <linearGradient id="bg1" x1="0%" y1="0%" x2="100%" y2="100%">
      <stop offset="0%" stop-color="#1a2a5e"/>
      <stop offset="100%" stop-color="#2d4a9e"/>
    </linearGradient>
    <linearGradient id="sungrad" x1="0%" y1="0%" x2="100%" y2="100%">
      <stop offset="0%" stop-color="#ffd86e"/>
      <stop offset="100%" stop-color="#ff9f3c"/>
    </linearGradient>
    <linearGradient id="cg" x1="0%" y1="0%" x2="0%" y2="100%">
      <stop offset="0%" stop-color="#ffffff" stop-opacity="0.97"/>
      <stop offset="100%" stop-color="#c8d8f0" stop-opacity="0.88"/>
    </linearGradient>
    <clipPath id="iconclip">
      <rect x="0" y="0" width="512" height="512" rx="112"/>
    </clipPath>
  </defs>

  <rect x="0" y="0" width="512" height="512" rx="112" fill="url(#bg1)"/>

  <g clip-path="url(#iconclip)">
    <circle cx="210" cy="200" r="82" fill="url(#sungrad)" opacity="0.9"/>
    <line x1="210" y1="100" x2="210" y2="78" stroke="#ffd86e" stroke-width="9" stroke-linecap="round"/>
    <line x1="210" y1="322" x2="210" y2="300" stroke="#ffd86e" stroke-width="9" stroke-linecap="round"/>
    <line x1="108" y1="200" x2="86" y2="200" stroke="#ffd86e" stroke-width="9" stroke-linecap="round"/>
    <line x1="332" y1="200" x2="310" y2="200" stroke="#ffd86e" stroke-width="9" stroke-linecap="round"/>
    <line x1="138" y1="130" x2="122" y2="114" stroke="#ffd86e" stroke-width="8" stroke-linecap="round"/>
    <line x1="282" y1="270" x2="298" y2="286" stroke="#ffd86e" stroke-width="8" stroke-linecap="round"/>
    <line x1="282" y1="130" x2="298" y2="114" stroke="#ffd86e" stroke-width="8" stroke-linecap="round"/>
    <line x1="138" y1="270" x2="122" y2="286" stroke="#ffd86e" stroke-width="8" stroke-linecap="round"/>

    <path d="
      M80,460
      Q55,460 42,443 Q28,426 36,406 Q44,386 66,382
      Q64,356 76,338 Q90,320 110,318 Q118,318 126,322
      Q136,300 160,290 Q184,280 206,288 Q228,280 252,288
      Q276,296 286,318 Q306,314 324,322 Q342,332 342,356 Q342,368 334,378
      Q346,384 350,400 Q354,416 344,428 Q334,442 316,444
      Z
    " fill="url(#cg)"/>
  </g>
</svg>
